<?xml version="1.0" encoding="UTF-8"?>
<svg id="Calque_1" data-name="Calque 1" xmlns="http://www.w3.org/2000/svg" viewBox="0 0 257.95 167.24">
  <defs>
    <style>
      .cls-1 {
        fill: #fff;
      }

      .cls-1, .cls-2 {
        stroke: #f5b22d;
      }

      .cls-1, .cls-2, .cls-3, .cls-4 {
        stroke-miterlimit: 10;
        stroke-width: .17px;
      }

      .cls-2, .cls-5 {
        fill: #f5b22d;
      }

      .cls-3 {
        fill: #faf3b4;
        stroke: #faf3b4;
      }

      .cls-4 {
        stroke: #1d1d1b;
      }

      .cls-5 {
        stroke-width: 0px;
      }
    </style>
  </defs>
  <rect class="cls-5" width="257.95" height="167.24" rx="16.27" ry="16.27"/>
  <g>
    <g>
      <path class="cls-3" d="m53.9,109.48c-1.13,0-2.05-.92-2.05-2.05v-23.55c0-1.13.92-2.05,2.05-2.05h13.24c2.41,0,4.46.52,6.1,1.56,1.65,1.04,2.9,2.45,3.71,4.2.77,1.66,1.16,3.5,1.16,5.47s-.46,3.93-1.36,5.6c-.92,1.7-2.23,3.07-3.9,4.06-1.67.99-3.64,1.49-5.86,1.49h-2.19v3.21c0,1.13-.92,2.05-2.05,2.05h-8.85Zm11.01-16.28s.07,0,.1,0c0-.04,0-.08,0-.14,0-.09,0-.16,0-.21h-.2v.35h.1Z"/>
      <path class="cls-3" d="m53.9,107.42v-23.55h13.24c2.02,0,3.69.41,5.01,1.24,1.32.83,2.3,1.94,2.94,3.33.65,1.39.97,2.93.97,4.61s-.37,3.25-1.12,4.63c-.74,1.38-1.79,2.47-3.14,3.27-1.35.8-2.96,1.21-4.81,1.21h-4.24v5.26h-8.85Zm8.85-12.18h2.16c.71,0,1.24-.19,1.61-.58.37-.39.55-.93.55-1.61,0-1.51-.67-2.27-2.01-2.27h-2.3v4.46Z"/>
      <path class="cls-3" d="m88.74,109.84c-2.48,0-4.76-.42-6.78-1.25-2.13-.88-3.85-2.21-5.11-3.95-1.29-1.79-1.94-3.97-1.94-6.5v-14.26c0-1.13.92-2.05,2.05-2.05h8.85c1.13,0,2.05.92,2.05,2.05v13.13c0,1.24.24,1.24.87,1.24s.87,0,.87-1.24v-13.13c0-1.13.92-2.05,2.05-2.05h8.85c1.13,0,2.05.92,2.05,2.05v14.26c0,2.53-.65,4.71-1.94,6.5-1.26,1.75-2.98,3.08-5.11,3.95-2.02.83-4.3,1.25-6.78,1.25Z"/>
      <path class="cls-3" d="m88.74,107.79c-2.22,0-4.22-.37-6-1.1-1.78-.73-3.19-1.82-4.22-3.25-1.04-1.44-1.55-3.2-1.55-5.3v-14.26h8.85v13.13c0,2.19.97,3.29,2.93,3.29s2.92-1.1,2.92-3.29v-13.13h8.85v14.26c0,2.1-.52,3.86-1.55,5.3-1.04,1.44-2.44,2.52-4.22,3.25-1.78.73-3.78,1.1-6,1.1Z"/>
      <path class="cls-3" d="m115.43,109.48c-.79,0-1.5-.45-1.85-1.15-.33.68-1.04,1.15-1.85,1.15h-8.85c-1.13,0-2.05-.92-2.05-2.05v-23.55c0-1.13.92-2.05,2.05-2.05h13.24c2.38,0,4.42.48,6.04,1.43,1.67.97,2.93,2.33,3.76,4.02.78,1.61,1.18,3.43,1.18,5.41s-.53,3.79-1.58,5.33c-.53.78-1.13,1.49-1.8,2.13,0,.01.03.06.03.06l2.78,6.4c.28.63.21,1.37-.17,1.94-.38.58-1.02.93-1.72.93h-9.21Z"/>
      <path class="cls-3" d="m102.89,107.42v-23.55h13.24c2.02,0,3.69.38,5.01,1.15s2.3,1.82,2.94,3.14c.65,1.33.97,2.83.97,4.52,0,1.58-.41,2.97-1.22,4.17-.82,1.19-1.8,2.18-2.94,2.96.27.17.48.36.62.57.15.21.27.42.37.64l2.78,6.4h-9.21l-2.3-5.23c-.12-.29-.26-.49-.4-.6-.15-.11-.35-.16-.62-.16h-.37v6h-8.85Zm8.85-12.91h2.16c1.44,0,2.16-.61,2.16-1.83,0-.68-.16-1.17-.49-1.46-.33-.29-.84-.44-1.52-.44h-2.3v3.73Z"/>
      <path class="cls-3" d="m135.03,109.84c-1.77,0-3.51-.15-5.16-.45-1.73-.31-3.22-.79-4.44-1.42-.69-.35-1.12-1.06-1.12-1.83v-6.62c0-.71.37-1.37.97-1.74.33-.21.71-.31,1.09-.31.07,0,.14,0,.21.01-.77-.72-1.36-1.55-1.75-2.48-.49-1.15-.73-2.51-.73-4.15,0-3.1,1.19-5.58,3.45-7.19,2.1-1.49,5.03-2.22,8.95-2.22.85,0,1.81.06,2.85.18,1,.11,2,.26,2.96.44.99.18,1.84.39,2.55.6.86.26,1.45,1.06,1.45,1.96v6.65c0,.69-.34,1.33-.92,1.71-.12.08-.24.14-.36.19.93.88,1.59,1.9,1.96,3.04.39,1.21.59,2.6.59,4.13,0,2.86-1.19,5.29-3.43,7.02-2.14,1.65-5.13,2.46-9.11,2.46Z"/>
      <path class="cls-3" d="m135.03,107.79c-1.66,0-3.25-.14-4.79-.42-1.54-.28-2.83-.69-3.88-1.22v-6.62c1.15.56,2.44,1.02,3.88,1.39,1.44.37,2.72.55,3.84.55.73,0,1.3-.09,1.72-.27.41-.18.62-.44.62-.79,0-.44-.39-.78-1.17-1.02-.78-.24-1.8-.6-3.07-1.06-1.51-.58-2.71-1.19-3.58-1.83-.88-.63-1.51-1.4-1.88-2.29-.38-.89-.57-2-.57-3.35,0-4.9,3.45-7.35,10.35-7.35.78,0,1.65.05,2.61.16.96.11,1.9.25,2.82.42.91.17,1.69.35,2.32.55v6.65c-1.34-.56-2.52-.94-3.55-1.13-1.02-.19-1.93-.29-2.71-.29-.61,0-1.23.05-1.86.16-.63.11-.95.36-.95.75,0,.32.28.57.84.75.56.18,1.45.45,2.67.79,1.95.54,3.41,1.18,4.39,1.92.97.74,1.63,1.62,1.96,2.63.33,1.01.49,2.18.49,3.49,0,2.24-.88,4.04-2.63,5.39s-4.38,2.03-7.86,2.03Z"/>
      <path class="cls-3" d="m158.94,109.84c-2.48,0-4.76-.42-6.78-1.25-2.13-.88-3.85-2.21-5.11-3.95-1.29-1.79-1.94-3.97-1.94-6.5v-14.26c0-1.13.92-2.05,2.05-2.05h8.85c1.13,0,2.05.92,2.05,2.05v13.13c0,1.24.24,1.24.87,1.24s.87,0,.87-1.24v-13.13c0-1.13.92-2.05,2.05-2.05h8.85c1.13,0,2.05.92,2.05,2.05v14.26c0,2.53-.65,4.71-1.94,6.5-1.26,1.75-2.98,3.08-5.11,3.95-2.02.83-4.3,1.25-6.78,1.25Z"/>
      <path class="cls-3" d="m158.94,107.79c-2.22,0-4.22-.37-6-1.1-1.78-.73-3.19-1.82-4.22-3.25-1.04-1.44-1.55-3.2-1.55-5.3v-14.26h8.85v13.13c0,2.19.97,3.29,2.93,3.29s2.93-1.1,2.93-3.29v-13.13h8.85v14.26c0,2.1-.52,3.86-1.55,5.3-1.04,1.44-2.44,2.52-4.22,3.25-1.78.73-3.78,1.1-6,1.1Z"/>
      <rect class="cls-3" x="171.04" y="81.82" width="12.95" height="27.65" rx="2.05" ry="2.05"/>
      <path class="cls-3" d="m173.09,107.42v-23.55h8.85v23.55h-8.85Z"/>
      <path class="cls-3" d="m189.21,109.48c-1.13,0-2.05-.92-2.05-2.05v-15.13h-3.94c-1.13,0-2.05-.92-2.05-2.05v-6.36c0-1.13.92-2.05,2.05-2.05h20.84c1.13,0,2.05.92,2.05,2.05v6.36c0,1.13-.92,2.05-2.05,2.05h-3.94v15.13c0,1.13-.92,2.05-2.05,2.05h-8.85Z"/>
      <path class="cls-3" d="m189.21,107.42v-17.18h-6v-6.36h20.84v6.36h-6v17.18h-8.85Z"/>
    </g>
    <g>
      <path class="cls-3" d="m184.28,84.12c-7.9,0-14.32-5.99-14.32-13.36s6.42-13.36,14.32-13.36c3.78,0,7.34,1.36,10.03,3.82.36.33.69.67,1.01,1.02,1.56,1.76,2.62,3.87,3.05,6.11.09.48.16.97.19,1.44.05.66-.23,1.31-.74,1.74-.37.31-.84.47-1.31.47-.18,0-.36-.02-.53-.07-.16-.04-.32-.09-.49-.14-.2-.06-.4-.14-.61-.24h-.02c-.45-.22-.87-.49-1.26-.8,0,0-1.54,2.33-1.55,2.35-.47.69-1.15,1.24-2.02,1.65-.06.03-.12.05-.18.08l-2.73.97c.57.31,1,.5,1.56.59.04,0,.08.01.12.02.16.03.33.05.53.05.29,0,.64-.03,1.04-.1.27-.04.54-.08.79-.09.74-.05,1.45-.16,2.11-.31.16-.04.31-.05.47-.05.71,0,1.39.37,1.77,1.01.46.77.36,1.75-.24,2.42-2.73,3.05-6.74,4.8-11,4.8Z"/>
      <path class="cls-3" d="m196.52,69.96c-.15-.04-.3-.08-.45-.13-.09-.03-.17-.06-.25-.1-.03-.01-.05-.03-.08-.04-.52-.24-.97-.59-1.36-1.01-.14-.15-.3-.27-.48-.35-.04-.02-.08-.03-.12-.04-.27-.08-.58-.03-.82.13-.42.27-.77.7-1.07,1.24l-1.52,2.29c-.27.4-.68.71-1.2.95l-2.83,1.01c-.71.25-1.23.64-1.48,1.23-.17.41-.15.87.05,1.26.08.16.18.31.29.45.23.29.53.53.85.71.66.37,1.36.71,2.31.86.55.12,1.26.14,2.34-.04.2-.03.4-.06.6-.07.84-.06,1.65-.17,2.44-.36-2.25,2.51-5.66,4.12-9.47,4.12-6.78,0-12.27-5.06-12.27-11.31s5.49-11.31,12.27-11.31c3.37,0,6.43,1.25,8.65,3.29.3.28.59.57.86.87,1.29,1.46,2.2,3.22,2.57,5.14.08.39.13.8.16,1.21Z"/>
      <path class="cls-3" d="m186.97,74.71c-2.99,0-5.61-3.15-5.61-6.75,0-3.78,1.85-6.32,4.72-6.47.13,0,.26-.01.38-.01,3.42,0,5.72,2.6,5.72,6.46s-2.29,6.77-5.21,6.77Z"/>
      <path class="cls-3" d="m190.13,67.94c0,2.46-1.31,4.72-3.16,4.72s-3.55-2.24-3.55-4.7.93-4.32,2.78-4.42c2.73-.15,3.93,1.94,3.93,4.4Z"/>
      <path class="cls-3" d="m188.41,72.98c-2.62,0-3.51-2.75-3.82-4.39-.26-1.42-.14-2.82.34-3.83.2-.41.52-.75.9-.97.32-.45.8-.76,1.34-.87.01,0,.04,0,.04,0,.19-.03.38-.05.57-.05,1.95,0,3.62,1.71,4.07,4.15.43,2.36-.31,5.21-2.53,5.83-.31.09-.62.13-.92.13Z"/>
      <path class="cls-3" d="m188.78,70.87c-1.28.35-1.88-1.1-2.17-2.65-.18-.97-.12-1.94.18-2.58.04-.08.14-.1.21-.05l.21.17.54.46c.08.07.14.03.11-.07l-.24-.67-.13-.37c-.03-.08.02-.16.1-.18,0,0,0,0,0,0,.94-.17,1.97.9,2.26,2.46.29,1.56-.14,3.22-1.06,3.48Z"/>
      <path class="cls-3" d="m189.34,80.57c-.47,0-.9-.04-1.32-.13-1.22-.19-2.14-.63-2.94-1.08-.58-.32-1.07-.73-1.46-1.22-.2-.25-.38-.53-.52-.81-.47-.94-.51-2.03-.11-2.99.33-.77,1.06-1.8,2.69-2.37l2.7-.96c.17-.09.26-.16.3-.22l1.46-2.2c.46-.82,1.04-1.46,1.7-1.89.5-.33,1.08-.5,1.68-.5.28,0,.56.04.83.12.14.04.27.09.41.15.43.19.82.47,1.15.83.22.24.47.43.73.55.03.01.06.03.09.04.12.03.24.07.35.1.12.03.25.07.37.1.73.18,1.33.28,1.77.28.03,0,.05,0,.08,0,.84.04,1.49.2,2.03.49.78.38,1.38,1,1.75,1.79.45.97.49,2.11.11,3.13-.36.93-1.01,1.73-1.95,2.38-.7.79-1.6,1.47-2.67,2.02-.05.03-.1.05-.14.08-1.26.78-2.67,1.35-4.19,1.71-.87.2-1.8.34-2.76.41-.13,0-.26.02-.4.05-.63.11-1.19.16-1.72.16Z"/>
      <path class="cls-3" d="m201.26,73.03c-.22.59-.66,1.07-1.27,1.47-.05.03-.09.06-.14.09h0s-.05.06-.08.09c-.57.68-1.31,1.22-2.16,1.66-.09.05-.19.1-.28.16-1.11.68-2.3,1.16-3.58,1.45-.79.18-1.6.3-2.44.36-.2.01-.4.04-.6.07-1.07.18-1.78.15-2.34.04-.96-.14-1.65-.49-2.31-.86-.33-.18-.62-.42-.85-.71-.12-.14-.21-.3-.29-.45-.2-.39-.22-.86-.05-1.26.25-.59.77-.99,1.48-1.23l2.83-1.01c.52-.24.93-.56,1.2-.95l1.52-2.29c.3-.55.65-.97,1.07-1.24.24-.16.54-.21.82-.13.04.01.08.03.12.04.18.08.34.2.48.35.39.42.84.77,1.36,1.01.03.01.05.03.08.04.08.04.17.08.25.1.15.04.3.09.45.13.14.04.28.07.41.11.82.2,1.59.33,2.24.34.5.03.92.1,1.2.26.4.19.66.48.83.83.22.48.24,1.03.05,1.53Z"/>
      <path class="cls-3" d="m196.52,72.01c-.18,0-.36-.02-.53-.07-.16-.04-.32-.09-.49-.14-.2-.06-.4-.14-.61-.24h-.02c-.71-.35-1.35-.81-1.91-1.4-.33-.14-.62-.37-.83-.66-.62-.84-1.07-1.81-1.3-2.82-.42-1.82-.34-3.46.22-4.76.26-.61.81-1.06,1.46-1.19.14-.03.29-.05.43-.05.51,0,1,.19,1.39.54.35.32.69.67,1.01,1.02,1.56,1.76,2.62,3.87,3.05,6.11.09.48.16.97.19,1.44.05.66-.23,1.31-.74,1.74-.37.31-.84.47-1.31.47Z"/>
      <path class="cls-3" d="m196.52,69.96c-.15-.04-.3-.08-.45-.13-.09-.03-.17-.06-.25-.1-.03-.01-.05-.03-.08-.04-.52-.24-.97-.59-1.36-1.01-.14-.15-.3-.27-.48-.35-.04-.02-.08-.03-.12-.04-.44-.59-.77-1.29-.95-2.05-.31-1.35-.29-2.58.1-3.49.3.28.59.57.86.87,1.29,1.46,2.2,3.22,2.57,5.14.08.39.13.8.16,1.21Z"/>
      <path class="cls-3" d="m195.66,71.03c-1.64,0-2.99-1.18-3.99-3.51-.4-.93-.78-1.95-.62-3.17.03-.2.08-.39.16-.57,0-.21.04-.42.12-.62.42-1.17,1.38-1.59,2.15-1.59.39,0,.78.1,1.15.3.68.36,1.19.96,1.33,1.14h0c.58.72,2.15,3.14,2.45,5.49.09.74-.22,1.48-.83,1.92-.12.08-.23.16-.35.22-.5.27-1.02.4-1.56.4Z"/>
      <path class="cls-3" d="m196.36,68.75s-.06.04-.1.06c-1.17.63-2.08-.65-2.71-2.1-.36-.83-.56-1.43-.47-2.09l1.01.3-.83-1.07c.07-.19.15-.3.38-.17.37.2.7.61.7.61.17.18,1.75,2.4,2.01,4.47Z"/>
      <path class="cls-3" d="m189.6,78.5c-1.13,0-2.07-.3-2.78-.88-.83-.68-.99-1.88-.38-2.76.4-.57,1.03-.88,1.69-.88.3,0,.61.07.89.21.04,0,.09.01.13.02.09,0,.18.01.27.01.77,0,1.72-.25,2.61-.69,0,0,.01,0,.02,0,.28-.13.58-.33.9-.53.12-.07.23-.15.35-.22.7-.43,1.62-.96,2.67-1.34.67-.25,1.34-.38,1.96-.38.89,0,1.71.25,2.42.74.47.33.88.76,1.18,1.25.09.14.16.28.2.36.01.02.02.04.03.06.54.91.29,2.08-.56,2.7-.39.37-.9.58-1.43.58-.17,0-.34-.02-.51-.07-.67-.17-1.2-.67-1.42-1.3-.07.01-.2.04-.42.12-.66.24-1.3.61-1.84.95-.1.06-.2.13-.3.19-.39.25-.84.54-1.34.78-1.32.65-2.69,1.02-4.07,1.09-.01,0-.03,0-.04,0-.08,0-.15,0-.23,0Z"/>
      <path class="cls-3" d="m199.99,74.5s-.09.06-.14.09h0s-.05.06-.08.09c0-.03-.01-.05-.02-.08-.03-.13-.09-.25-.16-.37-.27-.46-.74-.79-1.27-.89-.54-.11-1.09.02-1.6.2-.79.29-1.52.7-2.23,1.13-.48.3-.95.62-1.46.87-1.02.5-2.14.83-3.28.89-.56.02-1.19-.04-1.64-.41h0c.24.14.53.18.81.21,1.35.12,2.81-.29,4.01-.88.5-.24.96-.56,1.44-.86.72-.44,1.47-.86,2.28-1.15.84-.31,1.75-.41,2.53.12.24.17.45.39.6.65.08.12.13.26.21.38Z"/>
    </g>
    <g>
      <path class="cls-3" d="m59.56,82.32c-1.13,0-2.05-.92-2.05-2.05v-12.42h-3.52c-1.13,0-2.05-.92-2.05-2.05v-1.02c0-1.13.92-2.05,2.05-2.05h12.28c1.13,0,2.05.92,2.05,2.05v1.02c0,1.13-.92,2.05-2.05,2.05h-3.52v12.42c0,1.13-.92,2.05-2.05,2.05h-1.13Z"/>
      <path class="cls-3" d="m59.56,80.27v-14.47h-5.58v-1.02h12.28v1.02h-5.58v14.47h-1.13Z"/>
      <path class="cls-3" d="m80.54,82.32c-1.13,0-2.05-.92-2.05-2.05v-5.32h-6.25v5.32c0,1.13-.92,2.05-2.05,2.05h-1.13c-1.13,0-2.05-.92-2.05-2.05v-15.49c0-1.13.92-2.05,2.05-2.05h1.13c1.13,0,2.05.92,2.05,2.05v5.07h6.25v-5.07c0-1.13.92-2.05,2.05-2.05h1.13c1.13,0,2.05.92,2.05,2.05v15.49c0,1.13-.92,2.05-2.05,2.05h-1.13Z"/>
      <path class="cls-3" d="m70.18,80.27h-1.13v-15.49h1.13v15.49Zm10.49-7.37h-10.62v-1h10.62v1Zm-.13-8.12h1.13v15.49h-1.13v-15.49Z"/>
      <path class="cls-3" d="m87.06,82.32c-1.13,0-2.05-.92-2.05-2.05v-15.49c0-1.13.92-2.05,2.05-2.05h10.36c1.13,0,2.05.92,2.05,2.05v1.02c0,1.13-.92,2.05-2.05,2.05h-7.17v2h6.2c1.13,0,2.05.92,2.05,2.05v1c0,1.13-.92,2.05-2.05,2.05h-6.2v2.24h7.51c1.13,0,2.05.92,2.05,2.05v1.02c0,1.13-.92,2.05-2.05,2.05h-10.69Z"/>
      <path class="cls-3" d="m88.19,79.25h9.56v1.02h-10.69v-15.49h10.36v1.02h-9.23v13.45Zm-.13-7.35h8.39v1h-8.39v-1Z"/>
      <path class="cls-3" d="m107.55,82.32c-1.13,0-2.05-.92-2.05-2.05v-15.49c0-1.13.92-2.05,2.05-2.05h6.13c1.97,0,3.75.42,5.28,1.24,1.57.84,2.81,2.02,3.69,3.51.87,1.48,1.31,3.18,1.31,5.05s-.44,3.57-1.31,5.05c-.88,1.49-2.12,2.67-3.69,3.51-1.53.82-3.31,1.24-5.28,1.24h-6.13Zm6.04-5.12c1.11,0,2.07-.21,2.84-.62.74-.4,1.3-.92,1.69-1.6.41-.7.6-1.5.6-2.45s-.2-1.75-.61-2.45c-.4-.68-.95-1.21-1.69-1.6-.77-.41-1.73-.62-2.84-.62h-2.86v9.35h2.86Z"/>
      <path class="cls-3" d="m107.55,80.27v-15.49h6.13c1.64,0,3.08.33,4.31,1,1.24.66,2.2,1.58,2.89,2.74.69,1.17,1.03,2.5,1.03,4s-.34,2.84-1.03,4c-.69,1.17-1.65,2.08-2.89,2.74-1.24.66-2.68,1-4.31,1h-6.13Zm1.13-1.02h4.91c1.46,0,2.73-.29,3.81-.86,1.08-.58,1.91-1.37,2.5-2.38.59-1.01.89-2.17.89-3.48s-.3-2.47-.89-3.48c-.59-1.01-1.42-1.8-2.5-2.38-1.08-.58-2.35-.86-3.81-.86h-4.91v13.45Z"/>
      <path class="cls-3" d="m131.89,82.43c-2.48,0-4.5-.77-6-2.29-1.49-1.51-2.25-3.68-2.25-6.44v-8.92c0-1.13.92-2.05,2.05-2.05h1.13c1.13,0,2.05.92,2.05,2.05v8.87c0,.95.13,2.22.76,2.88.18.19.72.76,2.27.76s2.07-.57,2.25-.76c.63-.66.76-1.93.76-2.88v-8.87c0-1.13.92-2.05,2.05-2.05h1.13c1.13,0,2.05.92,2.05,2.05v8.92c0,2.76-.76,4.93-2.25,6.44-1.5,1.52-3.53,2.29-6.02,2.29Z"/>
      <path class="cls-3" d="m131.89,80.38c-1.92,0-3.43-.56-4.54-1.68-1.11-1.12-1.66-2.79-1.66-5v-8.92h1.13v8.87c0,1.93.44,3.36,1.33,4.29.89.93,2.14,1.39,3.76,1.39s2.85-.46,3.74-1.39c.88-.93,1.33-2.36,1.33-4.29v-8.87h1.13v8.92c0,2.21-.55,3.88-1.66,5-1.11,1.12-2.63,1.68-4.56,1.68Z"/>
      <path class="cls-3" d="m149.92,82.43c-1.41,0-2.74-.25-3.96-.73-1.23-.49-2.32-1.19-3.23-2.09-.92-.9-1.64-1.96-2.14-3.16-.5-1.2-.76-2.52-.76-3.92s.25-2.72.76-3.92c.5-1.2,1.23-2.27,2.16-3.17.92-.89,2-1.59,3.22-2.08,1.21-.49,2.54-.73,3.95-.73,1.33,0,2.6.22,3.78.66,1.25.46,2.33,1.18,3.23,2.13.75.8.74,2.05-.02,2.83l-.71.73c-.38.39-.9.62-1.45.62,0,0-.02,0-.03,0-.54,0-1.05-.21-1.44-.58-.45-.44-.93-.75-1.46-.94-.59-.21-1.2-.31-1.86-.31-.73,0-1.38.12-1.99.36-.6.24-1.1.56-1.53.99-.44.43-.77.92-1.01,1.5-.24.58-.36,1.2-.36,1.91s.12,1.33.36,1.9c.24.58.57,1.07,1.01,1.5.43.43.94.75,1.53.99.61.24,1.26.36,1.99.36.67,0,1.28-.1,1.86-.31.52-.19.99-.5,1.44-.95.39-.39.91-.6,1.45-.6,0,0,.01,0,.02,0,.55,0,1.08.23,1.46.62l.71.73c.76.79.77,2.04.02,2.83-.89.95-1.97,1.67-3.21,2.14-1.18.45-2.46.68-3.79.68Z"/>
      <path class="cls-3" d="m149.92,80.38c-1.15,0-2.22-.2-3.2-.59-.98-.39-1.83-.94-2.56-1.65-.72-.71-1.28-1.54-1.68-2.49-.4-.95-.6-1.99-.6-3.13s.2-2.18.6-3.13c.4-.95.96-1.78,1.69-2.49.73-.71,1.58-1.26,2.56-1.65.97-.39,2.04-.59,3.19-.59s2.11.18,3.06.53,1.77.89,2.45,1.62l-.71.73c-.66-.65-1.4-1.12-2.2-1.41-.8-.29-1.66-.43-2.56-.43-.99,0-1.91.17-2.75.51-.85.34-1.59.82-2.21,1.44-.63.62-1.11,1.34-1.46,2.17-.35.83-.52,1.73-.52,2.7s.17,1.87.52,2.7c.35.83.83,1.55,1.46,2.17.63.62,1.36,1.1,2.21,1.44.85.34,1.77.51,2.75.51.9,0,1.75-.14,2.56-.43.8-.29,1.54-.76,2.2-1.43l.71.73c-.68.72-1.49,1.27-2.45,1.63-.95.36-1.97.54-3.06.54Z"/>
      <path class="cls-3" d="m170.48,82.32c-.59,0-1.16-.26-1.55-.7l-5.21-5.95-1.33,1.36v3.24c0,1.13-.92,2.05-2.05,2.05h-1.13c-1.13,0-2.05-.92-2.05-2.05v-15.49c0-1.13.92-2.05,2.05-2.05h1.13c1.13,0,2.05.92,2.05,2.05v4.89l6.14-6.32c.39-.4.92-.62,1.47-.62h1.37c.82,0,1.57.49,1.89,1.25.32.76.16,1.64-.41,2.23l-5.51,5.7,6.05,7.02c.52.61.65,1.47.31,2.2-.33.73-1.06,1.2-1.87,1.2h-1.37Z"/>
      <path class="cls-3" d="m159.22,80.27v-15.49h1.13v15.49h-1.13Zm.97-3.92l-.04-1.42,9.87-10.16h1.37l-6.9,7.15-.64.69-3.65,3.74Zm10.29,3.92l-6.97-7.97.77-.82,7.57,8.78h-1.37Z"/>
    </g>
  </g>
  <g>
    <g>
      <path class="cls-5" d="m53.9,107.42v-23.55h13.24c2.02,0,3.69.41,5.01,1.24,1.32.83,2.3,1.94,2.94,3.33.65,1.39.97,2.93.97,4.61s-.37,3.25-1.12,4.63c-.74,1.38-1.79,2.47-3.14,3.27-1.35.8-2.96,1.21-4.81,1.21h-4.24v5.26h-8.85Zm8.85-12.18h2.16c.71,0,1.24-.19,1.61-.58.37-.39.55-.93.55-1.61,0-1.51-.67-2.27-2.01-2.27h-2.3v4.46Z"/>
      <path class="cls-5" d="m88.74,107.79c-2.22,0-4.22-.37-6-1.1-1.78-.73-3.19-1.82-4.22-3.25-1.04-1.44-1.55-3.2-1.55-5.3v-14.26h8.85v13.13c0,2.19.97,3.29,2.93,3.29s2.92-1.1,2.92-3.29v-13.13h8.85v14.26c0,2.1-.52,3.86-1.55,5.3-1.04,1.44-2.44,2.52-4.22,3.25-1.78.73-3.78,1.1-6,1.1Z"/>
      <path class="cls-5" d="m102.89,107.42v-23.55h13.24c2.02,0,3.69.38,5.01,1.15s2.3,1.82,2.94,3.14c.65,1.33.97,2.83.97,4.52,0,1.58-.41,2.97-1.22,4.17-.82,1.19-1.8,2.18-2.94,2.96.27.17.48.36.62.57.15.21.27.42.37.64l2.78,6.4h-9.21l-2.3-5.23c-.12-.29-.26-.49-.4-.6-.15-.11-.35-.16-.62-.16h-.37v6h-8.85Zm8.85-12.91h2.16c1.44,0,2.16-.61,2.16-1.83,0-.68-.16-1.17-.49-1.46-.33-.29-.84-.44-1.52-.44h-2.3v3.73Z"/>
      <path class="cls-5" d="m135.03,107.79c-1.66,0-3.25-.14-4.79-.42-1.54-.28-2.83-.69-3.88-1.22v-6.62c1.15.56,2.44,1.02,3.88,1.39,1.44.37,2.72.55,3.84.55.73,0,1.3-.09,1.72-.27.41-.18.62-.44.62-.79,0-.44-.39-.78-1.17-1.02-.78-.24-1.8-.6-3.07-1.06-1.51-.58-2.71-1.19-3.58-1.83-.88-.63-1.51-1.4-1.88-2.29-.38-.89-.57-2-.57-3.35,0-4.9,3.45-7.35,10.35-7.35.78,0,1.65.05,2.61.16.96.11,1.9.25,2.82.42.91.17,1.69.35,2.32.55v6.65c-1.34-.56-2.52-.94-3.55-1.13-1.02-.19-1.93-.29-2.71-.29-.61,0-1.23.05-1.86.16-.63.11-.95.36-.95.75,0,.32.28.57.84.75.56.18,1.45.45,2.67.79,1.95.54,3.41,1.18,4.39,1.92.97.74,1.63,1.62,1.96,2.63.33,1.01.49,2.18.49,3.49,0,2.24-.88,4.04-2.63,5.39-1.75,1.35-4.38,2.03-7.86,2.03Z"/>
      <path class="cls-5" d="m158.94,107.79c-2.22,0-4.22-.37-6-1.1-1.78-.73-3.19-1.82-4.22-3.25-1.04-1.44-1.55-3.2-1.55-5.3v-14.26h8.85v13.13c0,2.19.97,3.29,2.93,3.29s2.93-1.1,2.93-3.29v-13.13h8.85v14.26c0,2.1-.52,3.86-1.55,5.3-1.04,1.44-2.44,2.52-4.22,3.25-1.78.73-3.78,1.1-6,1.1Z"/>
      <path class="cls-5" d="m173.09,107.42v-23.55h8.85v23.55h-8.85Z"/>
      <path class="cls-5" d="m189.21,107.42v-17.18h-6v-6.36h20.84v6.36h-6v17.18h-8.85Z"/>
    </g>
    <g>
      <path class="cls-2" d="m196.52,69.96c-.15-.04-.3-.08-.45-.13-.09-.03-.17-.06-.25-.1-.03-.01-.05-.03-.08-.04-.52-.24-.97-.59-1.36-1.01-.14-.15-.3-.27-.48-.35-.04-.02-.08-.03-.12-.04-.27-.08-.58-.03-.82.13-.42.27-.77.7-1.07,1.24l-1.52,2.29c-.27.4-.68.71-1.2.95l-2.83,1.01c-.71.25-1.23.64-1.48,1.23-.17.41-.15.87.05,1.26.08.16.18.31.29.45.23.29.53.53.85.71.66.37,1.36.71,2.31.86.55.12,1.26.14,2.34-.04.2-.03.4-.06.6-.07.84-.06,1.65-.17,2.44-.36-2.25,2.51-5.66,4.12-9.47,4.12-6.78,0-12.27-5.06-12.27-11.31s5.49-11.31,12.27-11.31c3.37,0,6.43,1.25,8.65,3.29.3.28.59.57.86.87,1.29,1.46,2.2,3.22,2.57,5.14.08.39.13.8.16,1.21Z"/>
      <path class="cls-1" d="m190.13,67.94c0,2.46-1.31,4.72-3.16,4.72s-3.55-2.24-3.55-4.7.93-4.32,2.78-4.42c2.73-.15,3.93,1.94,3.93,4.4Z"/>
      <path class="cls-4" d="m188.78,70.87c-1.28.35-1.88-1.1-2.17-2.65-.18-.97-.12-1.94.18-2.58.04-.08.14-.1.21-.05l.21.17.54.46c.08.07.14.03.11-.07l-.24-.67-.13-.37c-.03-.08.02-.16.1-.18,0,0,0,0,0,0,.94-.17,1.97.9,2.26,2.46.29,1.56-.14,3.22-1.06,3.48Z"/>
      <path class="cls-1" d="m201.26,73.03c-.22.59-.66,1.07-1.27,1.47-.05.03-.09.06-.14.09h0s-.05.06-.08.09c-.57.68-1.31,1.22-2.16,1.66-.09.05-.19.1-.28.16-1.11.68-2.3,1.16-3.58,1.45-.79.18-1.6.3-2.44.36-.2.01-.4.04-.6.07-1.07.18-1.78.15-2.34.04-.96-.14-1.65-.49-2.31-.86-.33-.18-.62-.42-.85-.71-.12-.14-.21-.3-.29-.45-.2-.39-.22-.86-.05-1.26.25-.59.77-.99,1.48-1.23l2.83-1.01c.52-.24.93-.56,1.2-.95l1.52-2.29c.3-.55.65-.97,1.07-1.24.24-.16.54-.21.82-.13.04.01.08.03.12.04.18.08.34.2.48.35.39.42.84.77,1.36,1.01.03.01.05.03.08.04.08.04.17.08.25.1.15.04.3.09.45.13.14.04.28.07.41.11.82.2,1.59.33,2.24.34.5.03.92.1,1.2.26.4.19.66.48.83.83.22.48.24,1.03.05,1.53Z"/>
      <path class="cls-1" d="m196.52,69.96c-.15-.04-.3-.08-.45-.13-.09-.03-.17-.06-.25-.1-.03-.01-.05-.03-.08-.04-.52-.24-.97-.59-1.36-1.01-.14-.15-.3-.27-.48-.35-.04-.02-.08-.03-.12-.04-.44-.59-.77-1.29-.95-2.05-.31-1.35-.29-2.58.1-3.49.3.28.59.57.86.87,1.29,1.46,2.2,3.22,2.57,5.14.08.39.13.8.16,1.21Z"/>
      <path class="cls-4" d="m196.36,68.75s-.06.04-.1.06c-1.17.63-2.08-.65-2.71-2.1-.36-.83-.56-1.43-.47-2.09l1.01.3-.83-1.07c.07-.19.15-.3.38-.17.37.2.7.61.7.61.17.18,1.75,2.4,2.01,4.47Z"/>
      <path class="cls-5" d="m199.99,74.5s-.09.06-.14.09h0s-.05.06-.08.09c0-.03-.01-.05-.02-.08-.03-.13-.09-.25-.16-.37-.27-.46-.74-.79-1.27-.89-.54-.11-1.09.02-1.6.2-.79.29-1.52.7-2.23,1.13-.48.3-.95.62-1.46.87-1.02.5-2.14.83-3.28.89-.56.02-1.19-.04-1.64-.41h0c.24.14.53.18.81.21,1.35.12,2.81-.29,4.01-.88.5-.24.96-.56,1.44-.86.72-.44,1.47-.86,2.28-1.15.84-.31,1.75-.41,2.53.12.24.17.45.39.6.65.08.12.13.26.21.38Z"/>
    </g>
    <g>
      <path class="cls-5" d="m59.56,80.27v-14.47h-5.58v-1.02h12.28v1.02h-5.58v14.47h-1.13Z"/>
      <path class="cls-5" d="m70.18,80.27h-1.13v-15.49h1.13v15.49Zm10.49-7.37h-10.62v-1h10.62v1Zm-.13-8.12h1.13v15.49h-1.13v-15.49Z"/>
      <path class="cls-5" d="m88.19,79.25h9.56v1.02h-10.69v-15.49h10.36v1.02h-9.23v13.45Zm-.13-7.35h8.39v1h-8.39v-1Z"/>
      <path class="cls-5" d="m107.55,80.27v-15.49h6.13c1.64,0,3.08.33,4.31,1,1.24.66,2.2,1.58,2.89,2.74.69,1.17,1.03,2.5,1.03,4s-.34,2.84-1.03,4c-.69,1.17-1.65,2.08-2.89,2.74-1.24.66-2.68,1-4.31,1h-6.13Zm1.13-1.02h4.91c1.46,0,2.73-.29,3.81-.86,1.08-.58,1.91-1.37,2.5-2.38.59-1.01.89-2.17.89-3.48s-.3-2.47-.89-3.48c-.59-1.01-1.42-1.8-2.5-2.38-1.08-.58-2.35-.86-3.81-.86h-4.91v13.45Z"/>
      <path class="cls-5" d="m131.89,80.38c-1.92,0-3.43-.56-4.54-1.68-1.11-1.12-1.66-2.79-1.66-5v-8.92h1.13v8.87c0,1.93.44,3.36,1.33,4.29.89.93,2.14,1.39,3.76,1.39s2.85-.46,3.74-1.39c.88-.93,1.33-2.36,1.33-4.29v-8.87h1.13v8.92c0,2.21-.55,3.88-1.66,5-1.11,1.12-2.63,1.68-4.56,1.68Z"/>
      <path class="cls-5" d="m149.92,80.38c-1.15,0-2.22-.2-3.2-.59-.98-.39-1.83-.94-2.56-1.65-.72-.71-1.28-1.54-1.68-2.49-.4-.95-.6-1.99-.6-3.13s.2-2.18.6-3.13c.4-.95.96-1.78,1.69-2.49.73-.71,1.58-1.26,2.56-1.65.97-.39,2.04-.59,3.19-.59s2.11.18,3.06.53,1.77.89,2.45,1.62l-.71.73c-.66-.65-1.4-1.12-2.2-1.41-.8-.29-1.66-.43-2.56-.43-.99,0-1.91.17-2.75.51-.85.34-1.59.82-2.21,1.44-.63.62-1.11,1.34-1.46,2.17-.35.83-.52,1.73-.52,2.7s.17,1.87.52,2.7c.35.83.83,1.55,1.46,2.17.63.62,1.36,1.1,2.21,1.44.85.34,1.77.51,2.75.51.9,0,1.75-.14,2.56-.43.8-.29,1.54-.76,2.2-1.43l.71.73c-.68.72-1.49,1.27-2.45,1.63-.95.36-1.97.54-3.06.54Z"/>
      <path class="cls-5" d="m159.22,80.27v-15.49h1.13v15.49h-1.13Zm.97-3.92l-.04-1.42,9.87-10.16h1.37l-6.9,7.15-.64.69-3.65,3.74Zm10.29,3.92l-6.97-7.97.77-.82,7.57,8.78h-1.37Z"/>
    </g>
  </g>
</svg>